<svg width="100" height="22" viewBox="0 0 100 22" fill="none" xmlns="http://www.w3.org/2000/svg">
<path d="M1 21V1H21M1 21H21V1M1 21L5.54545 12.3636L9.18182 14.6364L12.3636 7.36364L16.4545 10.0909L21 1" stroke="#044B7F" stroke-width="2"/>
<path d="M33.364 13.102C33.364 13.6713 33.224 14.1893 32.944 14.656C32.664 15.1133 32.244 15.4773 31.684 15.748C31.124 16.0093 30.4193 16.14 29.57 16.14C28.982 16.14 28.4547 16.0887 27.988 15.986C27.5213 15.8833 27.0687 15.7293 26.63 15.524V13.354C27.134 13.5873 27.6473 13.7833 28.17 13.942C28.702 14.1007 29.2107 14.18 29.696 14.18C30.1533 14.18 30.4847 14.096 30.69 13.928C30.8953 13.7507 30.998 13.5313 30.998 13.27C30.998 12.9527 30.8347 12.696 30.508 12.5C30.1813 12.2947 29.7193 12.052 29.122 11.772C28.73 11.5947 28.3473 11.3847 27.974 11.142C27.61 10.89 27.3113 10.5773 27.078 10.204C26.8447 9.82133 26.728 9.336 26.728 8.748C26.728 7.81467 27.05 7.10067 27.694 6.606C28.3473 6.11133 29.2107 5.864 30.284 5.864C30.8627 5.864 31.3993 5.934 31.894 6.074C32.3887 6.20467 32.874 6.368 33.35 6.564L32.594 8.426C32.146 8.23 31.726 8.08067 31.334 7.978C30.9513 7.866 30.578 7.81 30.214 7.81C29.8313 7.81 29.5467 7.88933 29.36 8.048C29.1733 8.20667 29.08 8.40733 29.08 8.65C29.08 8.846 29.1453 9.01867 29.276 9.168C29.4067 9.308 29.612 9.45267 29.892 9.602C30.172 9.75133 30.5407 9.93333 30.998 10.148C31.4927 10.372 31.9173 10.6147 32.272 10.876C32.6267 11.1373 32.8973 11.4453 33.084 11.8C33.2707 12.1453 33.364 12.5793 33.364 13.102ZM39.4747 8.174C40.2867 8.174 40.94 8.398 41.4347 8.846C41.9387 9.28467 42.1907 9.99867 42.1907 10.988V16H39.8387V11.646C39.8387 11.114 39.75 10.7127 39.5727 10.442C39.3953 10.1713 39.1153 10.036 38.7327 10.036C38.1633 10.036 37.776 10.2507 37.5707 10.68C37.3653 11.1 37.2627 11.7067 37.2627 12.5V16H34.8967V8.314H36.6887L37.0107 9.308H37.1227C37.3653 8.93467 37.692 8.65467 38.1027 8.468C38.5133 8.272 38.9707 8.174 39.4747 8.174ZM47.6239 8.16C48.6225 8.16 49.3972 8.39333 49.9479 8.86C50.4985 9.32667 50.7739 10.008 50.7739 10.904V16H49.1359L48.6739 14.964H48.6179C48.2912 15.384 47.9459 15.6873 47.5819 15.874C47.2179 16.0513 46.7185 16.14 46.0839 16.14C45.4025 16.14 44.8379 15.9393 44.3899 15.538C43.9419 15.1367 43.7179 14.516 43.7179 13.676C43.7179 12.864 44.0025 12.262 44.5719 11.87C45.1505 11.4687 45.9952 11.2447 47.1059 11.198L48.4219 11.156V10.932C48.4219 10.5587 48.3239 10.288 48.1279 10.12C47.9412 9.952 47.6799 9.868 47.3439 9.868C47.0079 9.868 46.6579 9.924 46.2939 10.036C45.9299 10.1387 45.5612 10.2693 45.1879 10.428L44.4739 8.86C44.8939 8.636 45.3699 8.46333 45.9019 8.342C46.4339 8.22067 47.0079 8.16 47.6239 8.16ZM48.4219 12.5L47.7079 12.528C47.1199 12.5467 46.7092 12.654 46.4759 12.85C46.2425 13.0367 46.1259 13.2933 46.1259 13.62C46.1259 13.9093 46.2099 14.1193 46.3779 14.25C46.5459 14.3807 46.7605 14.446 47.0219 14.446C47.4139 14.446 47.7452 14.3293 48.0159 14.096C48.2865 13.8533 48.4219 13.5267 48.4219 13.116V12.5ZM57.2458 8.174C58.1045 8.174 58.7905 8.51467 59.3038 9.196C59.8171 9.868 60.0738 10.848 60.0738 12.136C60.0738 13.0133 59.9478 13.7507 59.6958 14.348C59.4438 14.936 59.0985 15.384 58.6598 15.692C58.2305 15.9907 57.7358 16.14 57.1758 16.14C56.6251 16.14 56.1911 16.042 55.8738 15.846C55.5658 15.65 55.3185 15.4353 55.1318 15.202H55.0338C55.0618 15.3793 55.0851 15.566 55.1038 15.762C55.1225 15.958 55.1318 16.168 55.1318 16.392V19.36H52.7658V8.314H54.6838L55.0198 9.294H55.1318C55.3278 8.99533 55.5938 8.734 55.9298 8.51C56.2658 8.286 56.7045 8.174 57.2458 8.174ZM56.4198 10.036C55.9438 10.036 55.6125 10.1947 55.4258 10.512C55.2391 10.82 55.1411 11.2867 55.1318 11.912V12.122C55.1318 12.8033 55.2251 13.326 55.4118 13.69C55.5985 14.054 55.9438 14.236 56.4478 14.236C57.2598 14.236 57.6658 13.5267 57.6658 12.108C57.6658 11.3893 57.5631 10.8667 57.3578 10.54C57.1525 10.204 56.8398 10.036 56.4198 10.036ZM67.2235 13.676C67.2235 14.432 66.9575 15.034 66.4255 15.482C65.9029 15.9207 65.0815 16.14 63.9615 16.14C63.4202 16.14 62.9442 16.1073 62.5335 16.042C62.1322 15.9767 61.7262 15.86 61.3155 15.692V13.788C61.7635 13.9933 62.2302 14.152 62.7155 14.264C63.2009 14.3667 63.6115 14.418 63.9475 14.418C64.3022 14.418 64.5589 14.3713 64.7175 14.278C64.8762 14.1847 64.9555 14.054 64.9555 13.886C64.9555 13.7647 64.9135 13.6573 64.8295 13.564C64.7549 13.4707 64.5962 13.368 64.3535 13.256C64.1202 13.1347 63.7702 12.976 63.3035 12.78C62.8462 12.584 62.4682 12.3833 62.1695 12.178C61.8802 11.9727 61.6609 11.73 61.5115 11.45C61.3715 11.1607 61.3015 10.8013 61.3015 10.372C61.3015 9.644 61.5815 9.098 62.1415 8.734C62.7109 8.36067 63.4622 8.174 64.3955 8.174C64.8902 8.174 65.3569 8.22533 65.7955 8.328C66.2342 8.43067 66.6869 8.58933 67.1535 8.804L66.4815 10.4C66.0989 10.232 65.7255 10.0967 65.3615 9.994C65.0069 9.89133 64.6849 9.84 64.3955 9.84C63.8542 9.84 63.5835 9.98 63.5835 10.26C63.5835 10.3627 63.6209 10.4607 63.6955 10.554C63.7795 10.638 63.9335 10.7313 64.1575 10.834C64.3909 10.9367 64.7269 11.0813 65.1655 11.268C65.6042 11.4453 65.9775 11.6367 66.2855 11.842C66.5935 12.038 66.8269 12.2807 66.9855 12.57C67.1442 12.8593 67.2235 13.228 67.2235 13.676ZM72.2616 14.264C72.4949 14.264 72.7142 14.2407 72.9196 14.194C73.1342 14.1473 73.3489 14.0867 73.5636 14.012V15.748C73.3116 15.86 73.0222 15.9533 72.6956 16.028C72.3689 16.1027 71.9816 16.14 71.5336 16.14C71.0576 16.14 70.6329 16.0653 70.2596 15.916C69.8956 15.7573 69.6062 15.4913 69.3916 15.118C69.1862 14.7447 69.0836 14.2173 69.0836 13.536V10.078H68.1036V9.098L69.2796 8.342L69.9236 6.718H71.4356V8.314H73.4796V10.078H71.4356V13.452C71.4356 13.7227 71.5102 13.928 71.6596 14.068C71.8089 14.1987 72.0096 14.264 72.2616 14.264ZM82.1776 12.136C82.1776 13.424 81.837 14.4133 81.1556 15.104C80.4836 15.7947 79.5596 16.14 78.3836 16.14C77.6556 16.14 77.007 15.986 76.4376 15.678C75.8776 15.3607 75.4343 14.908 75.1076 14.32C74.7903 13.7227 74.6316 12.9947 74.6316 12.136C74.6316 10.8667 74.9676 9.89133 75.6396 9.21C76.321 8.51933 77.2496 8.174 78.4256 8.174C79.1536 8.174 79.7976 8.328 80.3576 8.636C80.927 8.944 81.3703 9.392 81.6876 9.98C82.0143 10.568 82.1776 11.2867 82.1776 12.136ZM77.0256 12.136C77.0256 12.8547 77.133 13.4007 77.3476 13.774C77.5623 14.138 77.917 14.32 78.4116 14.32C78.897 14.32 79.247 14.138 79.4616 13.774C79.6763 13.4007 79.7836 12.8547 79.7836 12.136C79.7836 11.4267 79.6763 10.8947 79.4616 10.54C79.247 10.176 78.8923 9.994 78.3976 9.994C77.9123 9.994 77.5623 10.176 77.3476 10.54C77.133 10.8947 77.0256 11.4267 77.0256 12.136ZM87.105 16.14C85.9476 16.14 85.0423 15.8273 84.389 15.202C83.7356 14.5673 83.409 13.564 83.409 12.192C83.409 11.2587 83.5723 10.498 83.899 9.91C84.235 9.31267 84.697 8.874 85.285 8.594C85.873 8.314 86.545 8.174 87.301 8.174C87.805 8.174 88.2576 8.22533 88.659 8.328C89.0696 8.43067 89.4336 8.56133 89.751 8.72L89.065 10.498C88.7383 10.358 88.435 10.2507 88.155 10.176C87.875 10.092 87.5903 10.05 87.301 10.05C86.825 10.05 86.4563 10.2273 86.195 10.582C85.9336 10.9367 85.803 11.4687 85.803 12.178C85.803 12.8967 85.9383 13.424 86.209 13.76C86.4796 14.0867 86.8483 14.25 87.315 14.25C87.7256 14.25 88.1083 14.194 88.463 14.082C88.827 13.9607 89.1723 13.7927 89.499 13.578V15.51C89.1816 15.7153 88.8363 15.874 88.463 15.986C88.0896 16.0887 87.637 16.14 87.105 16.14ZM93.5361 5.36V9.854C93.5361 10.1527 93.5221 10.47 93.4941 10.806C93.4754 11.1327 93.4474 11.45 93.4101 11.758H93.4521C93.5734 11.5713 93.7088 11.3707 93.8581 11.156C94.0168 10.9413 94.1708 10.7453 94.3201 10.568L96.2801 8.314H98.9121L96.0421 11.618L99.0941 16H96.3921L94.4181 13.06L93.5361 13.746V16H91.1701V5.36H93.5361Z" fill="#044B7F"/>
</svg>
